/* XPM */ 
static const unsigned char * pipeline_logo_48x48_32bit_xpm[] = {
"48 48 853 2",
"  	c None",
"! 	c white",
"# 	c #B3B3B3",
"$ 	c #7A7A7A",
"% 	c #E0E0E0",
"& 	c #A7A7A7",
"' 	c #A2A2A2",
"( 	c #979797",
") 	c #4B4B4B",
"* 	c #7F7F7F",
"+ 	c #FCFCFC",
", 	c #A4A4A4",
"- 	c #A6A6A6",
". 	c #676767",
"0 	c #737374",
"1 	c #FBFBFB",
"2 	c #BEBEBE",
"3 	c #5E5E5E",
"4 	c #8A8A8A",
"5 	c #999999",
"6 	c #B4B4B4",
"7 	c #696969",
"8 	c #787878",
"9 	c #5A5A5A",
": 	c #858585",
"; 	c #707070",
"< 	c #969696",
"= 	c #4E4E4E",
"> 	c #777777",
"? 	c #FAFAFA",
"@ 	c #A3A3A3",
"A 	c #646464",
"B 	c #8E8E8E",
"C 	c #9A9A9A",
"D 	c #717171",
"E 	c #727272",
"F 	c #B1B1B1",
"G 	c #BABABA",
"H 	c #595959",
"I 	c #888888",
"J 	c #787778",
"K 	c #757575",
"L 	c #FEFEFE",
"M 	c #5D5D5D",
"N 	c #CFCFCF",
"O 	c #9B9B9B",
"P 	c #616161",
"Q 	c #757676",
"R 	c #C3C3C3",
"S 	c #5C5C5C",
"T 	c #797979",
"U 	c #D3D3D3",
"V 	c #F5F5F5",
"W 	c #515151",
"X 	c #7B7A7B",
"Y 	c #E8E8E8",
"Z 	c #737373",
"[ 	c #767676",
"] 	c #B2B2B2",
"^ 	c #545454",
"_ 	c #F2F2F2",
"` 	c #797878",
"a 	c #E1E1E1",
"b 	c #DFDFDF",
"c 	c #4F4F4F",
"d 	c #7C7C7C",
"e 	c #D2D2D2",
"f 	c #4C4C4C",
"g 	c #ECECEC",
"h 	c #E5E5E5",
"i 	c #4D4D4D",
"j 	c #F9F9F9",
"k 	c #BCBCBC",
"l 	c #5E5D5D",
"m 	c #848484",
"n 	c #F6F7F9",
"o 	c #DADDE6",
"p 	c #BCC1D4",
"q 	c #A3ABC7",
"r 	c #97A1C3",
"s 	c #969FC5",
"t 	c #A5AECF",
"u 	c #C4C9DF",
"v 	c #E9EBF3",
"w 	c #F4F4F4",
"x 	c #D7D7D7",
"y 	c #515252",
"z 	c #7E7F7E",
"{ 	c #C0C0C0",
"| 	c #565656",
"} 	c #838383",
"~ 	c #9E9E9E",
" !	c #727479",
"!!	c #8D92A1",
"#!	c #949CB5",
"$!	c #8690B2",
"%!	c #808CB4",
"&!	c #7B88B6",
"'!	c #7281B6",
"(!	c #6879B6",
")!	c #5D6FB3",
"*!	c #5265AF",
"+!	c #5063AD",
",!	c #7281BB",
"-!	c #B1B9D8",
".!	c #F9FAFC",
"0!	c #F8F8F8",
"1!	c #AEAEAE",
"2!	c #616060",
"3!	c #8B8B8B",
"4!	c #9F9F9F",
"5!	c #6F6F6F",
"6!	c #969799",
"7!	c #B7BAC3",
"8!	c #9BA1B1",
"9!	c #9EA4B7",
":!	c #9CA4BC",
";!	c #98A1C1",
"<!	c #929DC3",
"=!	c #8A98C6",
">!	c #8191C6",
"?!	c #7688C5",
"@!	c #6B7EC4",
"A!	c #5E73C0",
"B!	c #5167BB",
"C!	c #455CB3",
"D!	c #384FAA",
"E!	c #5366B1",
"F!	c #BDC4DF",
"G!	c #828282",
"H!	c #8D8D8D",
"I!	c #767576",
"J!	c #818385",
"K!	c #A0A3A9",
"L!	c #ACB0B7",
"M!	c #B0B5BE",
"N!	c #B0B7C5",
"O!	c #AEB6CA",
"P!	c #A9B2CE",
"Q!	c #A1ADD0",
"R!	c #99A6D2",
"S!	c #8E9ED3",
"T!	c #8394D3",
"U!	c #7689D1",
"V!	c #697ECE",
"W!	c #5B72C9",
"X!	c #4E66C3",
"Y!	c #4059BA",
"Z!	c #334DB0",
"[!	c #2841A3",
"]!	c #8390C5",
"^!	c #FBFCFD",
"_!	c #6E6E6E",
"`!	c #666666",
"a!	c #ACAEB1",
"b!	c #A7AAAF",
"c!	c #B8BABB",
"d!	c #C4C6C8",
"e!	c #C5C9CD",
"f!	c #C0C6D0",
"g!	c #BDC3D4",
"h!	c #B6BFD8",
"i!	c #ADB9DB",
"j!	c #A4B0DC",
"k!	c #99A8DD",
"l!	c #8B9DDD",
"m!	c #7F93DC",
"n!	c #7187D9",
"o!	c #637BD6",
"p!	c #556FD2",
"q!	c #4762C9",
"r!	c #3955C0",
"s!	c #2D49B4",
"t!	c #223CA6",
"u!	c #6071B7",
"v!	c #F8F8FB",
"w!	c #ADADAD",
"x!	c #727378",
"y!	c #A6AAB0",
"z!	c #BEC0C1",
"{!	c #D7D8D7",
"|!	c #E4E4E3",
"}!	c #E1E4E4",
"~!	c #D5D9DF",
" #	c #C7CEDC",
"!#	c #BEC7DF",
"##	c #B6C1E2",
"$#	c #ACB9E5",
"%#	c #A0AFE5",
"&#	c #94A5E5",
"'#	c #859AE5",
"(#	c #798EE5",
")#	c #6A82E1",
"*#	c #5B76DD",
"+#	c #4C68D5",
",#	c #3E5BCD",
"-#	c #314FC2",
".#	c #2542B4",
"0#	c #1A36A4",
"1#	c #6475B9",
"2#	c #656565",
"3#	c #B8B9BC",
"4#	c #A0A5B0",
"5#	c #B2B6BC",
"6#	c #D1D3D3",
"7#	c #EBEBEA",
"8#	c #F7F8F7",
"9#	c #F3F5F5",
":#	c #E5E8EC",
";#	c #D2D8E5",
"<#	c #C5CEE4",
"=#	c #BAC5E6",
">#	c #AFBCE8",
"?#	c #A3B3E9",
"@#	c #97A8E9",
"A#	c #8A9EEB",
"B#	c #7C93E9",
"C#	c #6E87E9",
"D#	c #5F7AE5",
"E#	c #506EE0",
"F#	c #4261D8",
"G#	c #3454CE",
"H#	c #2747C0",
"I#	c #1C3BB1",
"J#	c #1330A0",
"K#	c #8C98CA",
"L#	c #515152",
"M#	c #8B91A0",
"N#	c #A5AAB8",
"O#	c #BABEC6",
"P#	c #D7D9DC",
"Q#	c #F1F2F2",
"R#	c #FDFDFD",
"S#	c #F9F9FA",
"T#	c #EAEDF2",
"U#	c #D8DEEB",
"V#	c #C9D1E9",
"W#	c #BCC7EA",
"X#	c #AEBCEA",
"Y#	c #A3B3EB",
"Z#	c #96A9ED",
"[#	c #899FEE",
"]#	c #7D94ED",
"^#	c #6F89ED",
"_#	c #617EEC",
"`#	c #5270E8",
"a#	c #4465E1",
"b#	c #3657D8",
"c#	c #2A4BCC",
"d#	c #1E3EBC",
"e#	c #1533AD",
"f#	c #16319E",
"g#	c #D7DBEC",
"h#	c #BFC2CC",
"i#	c #949CB3",
"j#	c #A8AFC1",
"k#	c #BABFCD",
"l#	c #D3D7DE",
"m#	c #E9ECEF",
"n#	c #F4F5F7",
"o#	c #F1F3F6",
"p#	c #E7EAF2",
"q#	c #D7DEED",
"r#	c #CBD4ED",
"s#	c #BEC9EC",
"t#	c #AFBDEC",
"u#	c #A1B2ED",
"v#	c #95A8EE",
"w#	c #879DEE",
"x#	c #7B93F0",
"y#	c #6E89F0",
"z#	c #607EF0",
"{#	c #5372EC",
"|#	c #4465E7",
"}#	c #3759E0",
"~#	c #2B4DD5",
" $	c #1F40C7",
"!$	c #1536B7",
"#$	c #0D2BA5",
"$$	c #5669B4",
"%$	c #98A0BA",
"&$	c #969FBA",
"'$	c #A7B0C7",
"($	c #BAC0D4",
")$	c #CBD1DF",
"*$	c #DDE1EB",
"+$	c #E7E9F1",
",$	c #E6EAF2",
"-$	c #DFE4F1",
".$	c #D7DDF0",
"0$	c #CDD6EF",
"1$	c #BFCAEE",
"2$	c #AFBDEE",
"3$	c #9DAFED",
"4$	c #90A5EE",
"5$	c #849BF0",
"6$	c #7891F0",
"7$	c #6C87F2",
"8$	c #5E7CF2",
"9$	c #5172F0",
":$	c #4366ED",
";$	c #375BE6",
"<$	c #294DDC",
"=$	c #1E42CF",
">$	c #1537C0",
"?$	c #0C2DAE",
"@$	c #0D2A9D",
"A$	c #DDE1EF",
"B$	c #E3E5EC",
"C$	c #818BB1",
"D$	c #949FC1",
"E$	c #A4AFCD",
"F$	c #B7BED8",
"G$	c #C6CEE3",
"H$	c #D3D9EA",
"I$	c #DCE0EF",
"J$	c #DEE3F1",
"K$	c #DEE3F3",
"L$	c #D8DFF2",
"M$	c #CDD6F1",
"N$	c #BECAF0",
"O$	c #ACBBEE",
"P$	c #99ACEF",
"Q$	c #8BA1EF",
"R$	c #8098F0",
"S$	c #738EF2",
"T$	c #6884F2",
"U$	c #5B7BF4",
"V$	c #4E70F3",
"W$	c #4265F0",
"X$	c #3559E9",
"Y$	c #294EE1",
"Z$	c #1E42D6",
"[$	c #1438C6",
"]$	c #0B2EB5",
"^$	c #0625A0",
"_$	c #8592C8",
"`$	c #F7F8FB",
"a$	c #B8BED4",
"b$	c #7E8AB6",
"c$	c #909CC5",
"d$	c #A0ACD2",
"e$	c #B0BBDD",
"f$	c #C1CAE6",
"g$	c #CDD5EC",
"h$	c #D6DCF1",
"i$	c #DCE2F3",
"j$	c #DDE3F5",
"k$	c #D6DDF4",
"l$	c #CAD3F2",
"m$	c #BAC6F1",
"n$	c #A8B8F0",
"o$	c #93A8EF",
"p$	c #869DEF",
"q$	c #7A93F1",
"r$	c #6E8AF2",
"s$	c #6380F4",
"t$	c #5777F4",
"u$	c #4A6DF4",
"v$	c #3F63F3",
"w$	c #3358ED",
"x$	c #264DE4",
"y$	c #1C43DA",
"z$	c #1338CC",
"{$	c #0B2EBB",
"|$	c #0525A6",
"}$	c #3C52AB",
"~$	c #C6CCE2",
" %	c #949EC3",
"!%	c #7987BA",
"#%	c #A2A5B2",
"$%	c #9C9EA7",
"%%	c #848995",
"&%	c #B7C3E9",
"'%	c #A8ACBD",
"(%	c #A9AFC2",
")%	c #D4DBF4",
"*%	c #D5DCF5",
"+%	c #CFD7F4",
",%	c #C2CDF3",
"-%	c #B2C0F1",
".%	c #A0B1F1",
"0%	c #8CA1F1",
"1%	c #7E97F1",
"2%	c #8C9CDF",
"3%	c #5766A1",
"4%	c #667EDA",
"5%	c #6574B0",
"6%	c #466AF6",
"7%	c #3A5FF4",
"8%	c #2E56EF",
"9%	c #234BE8",
":%	c #1941DC",
";%	c #1037CF",
"<%	c #092EBE",
"=%	c #0425AA",
">%	c #132F9D",
"?%	c #939EC9",
"@%	c #7B88B9",
"A%	c #7282BC",
"B%	c #C1C1C2",
"C%	c #6A77A1",
"D%	c #D3D4D5",
"E%	c #68718E",
"F%	c #9A9EAB",
"G%	c #808493",
"H%	c #A3A7B3",
"I%	c #999EAD",
"J%	c #B5C2F3",
"K%	c #A5B6F2",
"L%	c #999EB2",
"M%	c #8990AC",
"N%	c #758FF2",
"O%	c #A7B2DA",
"P%	c #494C57",
"Q%	c #697FD2",
"R%	c #6D738A",
"S%	c #5879F7",
"T%	c #7D88AE",
"U%	c #7981A3",
"V%	c #1F43DA",
"W%	c #173FDE",
"X%	c #7582B6",
"Y%	c #626C97",
"Z%	c #0323A1",
"[%	c #022098",
"]%	c #717FB9",
"^%	c #6C7BB5",
"_%	c #6A7BBC",
"`%	c #E0E0E1",
"a%	c #90929A",
"b%	c #898A8F",
"c%	c #7F8DBE",
"d%	c #9EA1AC",
"e%	c #717584",
"f%	c #C5C5C7",
"g%	c #5C606C",
"h%	c #AAABAE",
"i%	c #7A819E",
"j%	c #999EB3",
"k%	c #8C8E96",
"l%	c #A8AAB2",
"m%	c #6C7491",
"n%	c #A4AFDB",
"o%	c #484B57",
"p%	c #6C80CA",
"q%	c #84868F",
"r%	c #6B89FA",
"s%	c #8F9092",
"t%	c #959BB3",
"u%	c #464F71",
"v%	c #7788C9",
"w%	c #80828C",
"x%	c #A0A4B6",
"y%	c #50556E",
"z%	c #001E97",
"{%	c #6171B1",
"|%	c #6576B5",
"}%	c #6073BD",
"~%	c #798DD8",
" &	c #8296E2",
"!&	c #899EE8",
"#&	c #9B9EAC",
"$&	c #6B7083",
"%&	c #C4C5C7",
"&&	c #777F9E",
"'&	c #AEB0B6",
"(&	c #5F6680",
")&	c #8F94A9",
"*&	c #87888E",
"+&	c #818596",
",&	c #55608A",
"-&	c #A1ADDB",
".&	c #474A57",
"0&	c #687CCB",
"1&	c #83868F",
"2&	c #6785FA",
"3&	c #818287",
"4&	c #8994C3",
"5&	c #444D6C",
"6&	c #7583BC",
"7&	c #808187",
"8&	c #717894",
"9&	c #303A60",
":&	c #001E95",
";&	c #6171B0",
"<&	c #6879B8",
"=&	c #566BBB",
">&	c #717582",
"?&	c #6C82D7",
"@&	c #758DE1",
"A&	c #7B92E8",
"B&	c #7A84AC",
"C&	c #5F6992",
"D&	c #C3C4C7",
"E&	c #737783",
"F&	c #6A7082",
"G&	c #7089E2",
"H&	c #708AF2",
"I&	c #808596",
"J&	c #7D8292",
"K&	c #4A60B1",
"L&	c #758CE0",
"M&	c #353F67",
"N&	c #506DDD",
"O&	c #4D577D",
"P&	c #486BF9",
"Q&	c #475072",
"R&	c #4E65BF",
"S&	c #28397E",
"T&	c #0C36DB",
"U&	c #717998",
"V&	c #707487",
"W&	c #102576",
"X&	c #032092",
"Y&	c #7381B8",
"Z&	c #7C8AC2",
"[&	c #4A61B6",
"]&	c #556EC7",
"^&	c #6078D5",
"_&	c #6982E0",
"`&	c #728CED",
"a&	c #748DF1",
"b&	c #9A9DA6",
"c&	c #556AB5",
"d&	c #6E89F2",
"e&	c #6986F3",
"f&	c #6381F3",
"g&	c #5D7CF4",
"h&	c #5777F5",
"i&	c #5072F6",
"j&	c #486BF6",
"k&	c #4065F8",
"l&	c #385FF8",
"m&	c #2F58F9",
"n&	c #2651F6",
"o&	c #1E49F3",
"p&	c #1641ED",
"q&	c #0F3AE4",
"r&	c #0832D7",
"s&	c #032AC8",
"t&	c #0024B6",
"u&	c #0020A1",
"v&	c #163096",
"w&	c #98A2C8",
"x&	c #A4ADD3",
"y&	c #4057B2",
"z&	c #4963C2",
"{&	c #536DD1",
"|&	c #5F7CE6",
"}&	c #6480EC",
"~&	c #6682F0",
" '	c #6682F2",
"!'	c #6380F2",
"#'	c #617FF4",
"$'	c #5D7CF5",
"%'	c #5878F5",
"&'	c #5273F6",
"''	c #4C6FF6",
"('	c #4569F7",
")'	c #3E64F8",
"*'	c #375EF8",
"+'	c #2F58F8",
",'	c #2851F7",
"-'	c #1F4AF5",
".'	c #1843F1",
"0'	c #1A37AD",
"1'	c #1C3495",
"2'	c #052ED0",
"3'	c #0127C1",
"4'	c #0023AE",
"5'	c #001F99",
"6'	c #4155A4",
"7'	c #CBD0E2",
"8'	c #DCDFEE",
"9'	c #374FAC",
":'	c #3E57BC",
";'	c #4661CC",
"<'	c #4D6AD8",
"='	c #5270E3",
">'	c #5575EA",
"?'	c #5877EF",
"@'	c #5878F2",
"A'	c #5475F5",
"B'	c #5173F6",
"C'	c #476BF7",
"D'	c #4267F8",
"E'	c #3B61F8",
"F'	c #355CF8",
"G'	c #2E57F8",
"H'	c #2751F8",
"I'	c #1F4BF6",
"J'	c #1944F3",
"K'	c #123EED",
"L'	c #37488D",
"M'	c #4E5778",
"N'	c #0229C2",
"O'	c #0025B8",
"P'	c #0021A5",
"Q'	c #001D91",
"R'	c #8E99C5",
"S'	c #596CB6",
"T'	c #324CB3",
"U'	c #3956C4",
"V'	c #405DD1",
"W'	c #4464DD",
"X'	c #4869E6",
"Y'	c #4A6CEC",
"Z'	c #4A6CF0",
"['	c #4A6CF2",
"]'	c #476BF5",
"^'	c #4569F6",
"_'	c #4166F6",
"`'	c #3C62F7",
"a'	c #325AF8",
"b'	c #2C55F9",
"c'	c #264FF8",
"d'	c #1E4BF7",
"e'	c #1844F3",
"f'	c #203BA5",
"g'	c #1732A3",
"h'	c #132F9C",
"i'	c #303D71",
"j'	c #0023AD",
"k'	c #001F9B",
"l'	c #0B258C",
"m'	c #E4E7F0",
"n'	c #B4BCDC",
"o'	c #2742A9",
"p'	c #2D4ABA",
"q'	c #3251C8",
"r'	c #3757D4",
"s'	c #3B5CDF",
"t'	c #3D5FE7",
"u'	c #3D61EB",
"v'	c #3C61F0",
"w'	c #3C61F3",
"x'	c #395EF4",
"y'	c #355CF6",
"z'	c #3159F6",
"{'	c #2C56F7",
"|'	c #2751F6",
"}'	c #224CF6",
"~'	c #1C48F5",
" (	c #1643F2",
"!(	c #113DED",
"#(	c #4E5987",
"$(	c #404B77",
"%(	c #022CD1",
"&(	c #1B318A",
"'(	c #1D2B67",
"((	c #001D8F",
")(	c #6070AE",
"*(	c #FEFEFF",
"+(	c #5568B6",
",(	c #223FAE",
"-(	c #2746BD",
".(	c #2A4BC9",
"0(	c #2D50D5",
"1(	c #2F53DF",
"2(	c #3155E5",
"3(	c #3055E9",
"4(	c #2F56ED",
"5(	c #2C54EF",
"6(	c #2A52F2",
"7(	c #2946B9",
"8(	c #415298",
"9(	c #1D40CC",
":(	c #1944F1",
";(	c #324699",
"<(	c #5F647C",
"=(	c #0B33D3",
">(	c #1B3392",
"?(	c #223277",
"@(	c #334074",
"A(	c #192863",
"B(	c #E2E5EF",
"C(	c #253FA6",
"D(	c #1C3AB0",
"E(	c #1F40BD",
"F(	c #2244C9",
"G(	c #2347D3",
"H(	c #2449DC",
"I(	c #244AE1",
"J(	c #234AE5",
"K(	c #2149E8",
"L(	c #1F48EA",
"M(	c #354894",
"N(	c #989898",
"O(	c #424E7E",
"P(	c #123CE9",
"Q(	c #1633A8",
"R(	c #9E9F9E",
"S(	c #3C497A",
"T(	c #022BCE",
"U(	c #273983",
"V(	c #A1A1A1",
"W(	c #132670",
"X(	c #4A516E",
"Y(	c #929292",
"Z(	c #C5C5C5",
"[(	c #B0B9DB",
"](	c #1430A0",
"^(	c #1634AE",
"_(	c #1838BA",
"`(	c #193CC5",
"a(	c #193DCE",
"b(	c #1940D5",
"c(	c #183FDA",
"d(	c #173FDD",
"e(	c #153EE0",
"f(	c #133CDB",
"g(	c #213A9D",
"h(	c #273880",
"i(	c #0731D9",
"j(	c #183297",
"k(	c #A3A3A2",
"l(	c #233372",
"m(	c #0024B4",
"n(	c #444E76",
"o(	c #9C9C9C",
"p(	c #091C69",
"q(	c #6977AC",
"r(	c #909090",
"s(	c #898989",
"t(	c #DDDDDD",
"u(	c #A3ADD5",
"v(	c #112EA0",
"w(	c #0F2EAA",
"x(	c #1031B5",
"y(	c #1133BE",
"z(	c #1035C6",
"{(	c #1035CC",
"|(	c #0F36D0",
"}(	c #0C34D2",
"~(	c #0931D2",
" )	c #2E408A",
"!)	c #142A84",
"#)	c #0027C2",
"$)	c #2B3B7F",
"%)	c #15266E",
"&)	c #011E92",
"')	c #5D6277",
"()	c #868688",
"))	c #D4D4D4",
"*)	c #949494",
"+)	c #808080",
",)	c #BAC2DF",
"-)	c #233DA3",
".)	c #0828A3",
"0)	c #0929AC",
"1)	c #092CB5",
"2)	c #092CBB",
"3)	c #082CBE",
"4)	c #062CC2",
"5)	c #052BC3",
"6)	c #0329C2",
"7)	c #0228C0",
"8)	c #46517D",
"9)	c #082187",
":)	c #0021A7",
";)	c #464E73",
"<)	c #959494",
"=)	c #0C1F69",
">)	c #7E88B2",
"?)	c #939494",
"@)	c #EBEBEB",
"A)	c #7E7E7E",
"B)	c #E9ECF4",
"C)	c #6879BC",
"D)	c #0B279B",
"E)	c #0323A0",
"F)	c #0323A6",
"G)	c #0224AC",
"H)	c #0124AF",
"I)	c #0123B0",
"J)	c #0023AF",
"K)	c #0222A2",
"L)	c #5F667D",
"M)	c #7E7F84",
"N)	c #041C7C",
"O)	c #011B85",
"P)	c #6C707E",
"Q)	c #898A8A",
"R)	c #ABACAB",
"S)	c #A9A9A9",
"T)	c #D6DAEB",
"U)	c #7A89C3",
"V)	c #2840A3",
"W)	c #001E96",
"X)	c #001E98",
"Y)	c #001D93",
"Z)	c #051D80",
"[)	c #8A8B90",
"])	c #6D7077",
"^)	c #B5BAD1",
"_)	c #939393",
"`)	c #838484",
"a)	c #BFBFBF",
"b)	c #E4E7F1",
"c)	c #ACB4D6",
"d)	c #828FC2",
"e)	c #6877B6",
"f)	c #6070B2",
"g)	c #6474B2",
"h)	c #7986BB",
"i)	c #9FA8CD",
"j)	c #ABAEB9",
"k)	c #818081",
"l)	c #CECECE",
"m)	c #A8A8A8",
"n)	c #919192",
"o)	c #C2C2C2",
"p)	c #B5B6B6",
"q)	c #A3A4A3",
"r)	c #B5B5B5",
"s)	c #A5A5A5",
"t)	c #929291",
"u)	c #B8B8B8",
"v)	c #F3F3F3",
"w)	c #DCDCDC",
"x)	c #9E9E9D",
"y)	c #A4A5A4",
"z)	c #A1A0A0",
"{)	c #9D9D9D",
"|)	c #8E8F8F",
"})	c #8E8D8E",
"~)	c #E7E7E7",
" *	c #818181",
"!*	c #959595",
"#*	c #B6B6B6",
"$*	c #E9EAE9",
"%*	c #E9E9E9",
"&*	c #CDCDCD",
"'*	c #9C9D9C",
"(*	c #F6F6F6",
")*	c #8C8C8C",
"**	c #8F8E8F",
"+*	c #8B8B8A",
",*	c #D0D0D0",
"-*	c #DADADA",
".*	c #F7F7F7",
"0*	c #A0A0A0",
"1*	c #939394",
"2*	c #E6E6E6",
"3*	c #BDBDBD",
"4*	c #868686",
"5*	c #A1A0A1",
"6*	c #9A999A",
"7*	c #989998",
"8*	c #848384",
"9*	c #ABABAB",
":*	c #8F8F8F",
"! ! ! ! ! ! ! ! ! ! ! # $ % ! ! ! ! ! ! ! ! ! ! ! ! ! ! ! ! ! ! ! ! ! ! ! ! ! ! ! ! ! ! ! ! ! ! ",
"! ! ! ! ! ! ! ! ! & ' ( ) * + ! ! ! ! ! ! ! ! ! ! ! ! ! ! ! ! ! ! ! ! ! ! ! ! ! ! ! ! ! ! ! ! ! ",
"! ! ! ! ! ! , - ! . 0 1 2 3 4 ! ! ! ! ! ! ! ! ! ! ! ! ! ! ! ! ! ! ! ! ! ! ! ! ! ! ! ! ! ! ! ! ! ",
"! ! ! 5 6 ! 7 8 ! 6 9 : ! ( ; < ! ! ! ! ! ! ! ! ! ! ! ! ! ! ! ! ! ! ! ! ! ! ! ! ! ! ! ! ! ! ! ! ",
"! ! ! = > ? @ A B ! C D C ! E $ F ! ! ! ! ! ! ! ! ! ! ! ! ! ! ! ! ! ! ! ! ! ! ! ! ! ! ! ! ! ! ! ",
"! ! ! G H : ! I J & ! ; K 6 L M > N ! ! ! ! ! ! ! ! ! ! ! ! ! ! ! ! ! ! ! ! ! ! ! ! ! ! ! ! ! ! ",
"! ! ! ! O ; C ! P Q R ! S T U V W X Y ! ! ! ! ! ! ! ! ! ! ! ! ! ! ! ! ! ! ! ! ! ! ! ! ! ! ! ! ! ",
"! ! ! ! ! Z [ ] ? ^ T % _ = ` a b c d V ! ! ! ! ! ! ! ! ! ! ! ! ! ! ! ! ! ! ! ! ! ! ! ! ! ! ! ! ",
"! ! ! ! ! ! S > e Y f $ g h i d j k l m ! n o p q r s t u v ! ! ! ! ! ! ! ! ! ! ! ! ! ! ! ! ! ! ",
"! ! ! ! ! ! w c T b x y z ! { | } ! ~  !!!#!$!%!&!'!(!)!*!+!,!-!.!! ! ! ! ! ! ! ! ! ! ! ! ! ! ! ",
"! ! ! ! ! ! ! h f d 0!1!2!3!! 4!5!6!7!8!9!:!;!<!=!>!?!@!A!B!C!D!E!F!! ! ! ! ! ! ! ! ! ! ! ! ! ! ",
"! ! ! ! ! ! ! ! R | G!! H!I!@ ! J!K!L!M!N!O!P!Q!R!S!T!U!V!W!X!Y!Z![!]!^!! ! ! ! ! ! ! ! ! ! ! ! ",
"! ! ! ! ! ! ! ! ! 4!_!( ! `![ a!b!c!d!e!f!g!h!i!j!k!l!m!n!o!p!q!r!s!t!u!v!! ! ! ! ! ! ! ! ! ! ! ",
"! ! ! ! ! ! ! ! ! ! 8 K w!+ x!y!z!{!|!}!~! #!###$#%#&#'#(#)#*#+#,#-#.#0#1#! ! ! ! ! ! ! ! ! ! ! ",
"! ! ! ! ! ! ! ! ! ! ! 2#> 3#4#5#6#7#8#9#:#;#<#=#>#?#@#A#B#C#D#E#F#G#H#I#J#K#! ! ! ! ! ! ! ! ! ! ",
"! ! ! ! ! ! ! ! ! ! ! 0!L#M#N#O#P#Q#R#S#T#U#V#W#X#Y#Z#[#]#^#_#`#a#b#c#d#e#f#g#! ! ! ! ! ! ! ! ! ",
"! ! ! ! ! ! ! ! ! ! ! ! h#i#j#k#l#m#n#o#p#q#r#s#t#u#v#w#x#y#z#{#|#}#~# $!$#$$$! ! ! ! ! ! ! ! ! ",
"! ! ! ! ! ! ! ! ! ! ! L %$&$'$($)$*$+$,$-$.$0$1$2$3$4$5$6$7$8$9$:$;$<$=$>$?$@$A$! ! ! ! ! ! ! ! ",
"! ! ! ! ! ! ! ! ! ! ! B$C$D$E$F$G$H$I$J$K$L$M$N$O$P$Q$R$S$T$U$V$W$X$Y$Z$[$]$^$_$`$! ! ! ! ! ! ! ",
"! ! ! ! ! ! ! ! ! ! ! a$b$c$d$e$f$g$h$i$j$k$l$m$n$o$p$q$r$s$t$u$v$w$x$y$z${$|$}$~$! ! ! ! ! ! ! ",
"! ! ! ! ! ! ! ! ! ! !  %!%#%$%%%&%'%(%)%*%+%,%-%.%0%1%2%3%4%5%6%7%8%9%:%;%<%=%>%?%! ! ! ! ! ! ! ",
"! ! ! ! ! ! ! ! ! ! ! @%A%B%C%D%E%F%G%H%H%I%J%K%L%M%N%O%P%Q%R%S%T%U%V%W%X%Y%Z%[%]%! ! ! ! ! ! ! ",
"! ! ! ! ! ! ! ! ! ! ! ^%_%`%a%b%c%d%e%f%g%h%i%j%k%l%m%n%o%p%q%r%s%t%u%v%w%x%y%z%{%! ! ! ! ! ! ! ",
"! ! ! ! ! ! ! ! ! ! ! |%}%B%~% &!&#&$&%&&&'&(&)&*&+&,&-&.&0&1&2&3&4&5&6&7&8&9&:&;&! ! ! ! ! ! ! ",
"! ! ! ! ! ! ! ! ! ! ! <&=&>&?&@&A&B&C&D&E&F&G&H&I&J&K&L&M&N&O&P&Q&R&S&T&U&V&W&X&Y&! ! ! ! ! ! ! ",
"! ! ! ! ! ! ! ! ! ! ! Z&[&]&^&_&C#`&a&b&c&d&e&f&g&h&i&j&k&l&m&n&o&p&q&r&s&t&u&v&w&! ! ! ! ! ! ! ",
"! ! ! ! ! ! ! ! ! ! ! x&y&z&{&*#|&}&~& '!'#'$'%'&'''(')'*'+','-'.'0'1'2'3'4'5'6'7'! ! ! ! ! ! ! ",
"! ! ! ! ! ! ! ! ! ! ! 8'9':';'<'='>'?'@'t$A'B'''C'D'E'F'G'H'I'J'K'L'M'N'O'P'Q'R'.!! ! ! ! ! ! ! ",
"! ! ! ! ! ! ! ! ! ! ! ! S'T'U'V'W'X'Y'Z'[']'^'_'`'*'a'b'c'd'e'f'g'h', i'j'k'l'm'! ! ! ! ! ! ! ! ",
"! ! ! ! ! ! ! ! ! ! ! ! n'o'p'q'r's't'u'v'w'x'y'z'{'|'}'~' (!(#($(%(&(@ '((()(! ! ! ! ! ! ! ! ! ",
"! ! ! ! ! ! ! ! ! ! ! ! *(+(,(-(.(0(1(2(3(4(5(6(7(8(9(:(;(<(=(>(& ?(t&@(@ A(B(! ! ! ! ! ! ! ! ! ",
"! ! ! ! ! ! ! ! ! ! ! ! ! g#C(D(E(F(G(H(I(J(K(L(M(N(O(P(Q(R(S(T(U(V(W(z%X(Y(Z(! ! ! ! ! ! ! ! ! ",
"! ! ! ! ! ! ! ! ! ! ! ! ! ! [(](^(_(`(a(b(c(d(e(f(g(' h(i(j(k(l(m(n(o(p(q(r(s(t(! ! ! ! ! ! ! ! ",
"! ! ! ! ! ! ! ! ! ! ! ! ! ! ! u(v(w(x(y(z({(|(}(=(~( )V(!)#)$)@ %)&)')()))% *)+)_ ! ! ! ! ! ! ! ",
"! ! ! ! ! ! ! ! ! ! ! ! ! ! ! ! ,)-).)0)1)2)3)4)5)6)7)8)C 9):);)<)=)>)?)G!@)N o(A)1 ! ! ! ! ! ! ",
"! ! ! ! ! ! ! ! ! ! ! ! ! ! ! ! ! B)C)D)E)F)G)H)I)J)j'K)L)M)N)O)P)Q)))U 5 +)? R)S)r(! ! ! ! ! ! ",
"! ! ! ! ! ! ! ! ! ! ! ! ! ! ! ! ! ! ! T)U)V)W)X)5'5'z%Y)Z)[)])^)b _)`)g a)' } ! C ~ & ! ! ! ! ! ",
"! ! ! ! ! ! ! ! ! ! ! ! ! ! ! ! ! ! ! ! ! b)c)d)e)f)g)h)i)j)N(k)1 l)C +)? ~ m)4!! n)N(o)! ! ! ! ",
"! ! ! ! ! ! ! ! ! ! ! ! ! ! ! ! ! ! ! ! ! ! ! ! ! ! ! ! ! ! p)q)4 ! r)s)3!! t)N(u)v)B I w)! ! ! ",
"! ! ! ! ! ! ! ! ! ! ! ! ! ! ! ! ! ! ! ! ! ! ! ! ! ! ! ! ! ! ! x)y)V(! z)4!{)+ |)})))~)<) *g ! ! ",
"! ! ! ! ! ! ! ! ! ! ! ! ! ! ! ! ! ! ! ! ! ! ! ! ! ! ! ! ! ! ! ! !*5 # ! < ~ #*$*r(G!%*&*'*G!R#! ",
"! ! ! ! ! ! ! ! ! ! ! ! ! ! ! ! ! ! ! ! ! ! ! ! ! ! ! ! ! ! ! ! (*r()*x V **+*,*-*5 A).*u)0*} .*",
"! ! ! ! ! ! ! ! ! ! ! ! ! ! ! ! ! ! ! ! ! ! ! ! ! ! ! ! ! ! ! ! ! Y r( *Y Y 1*G!2*3*@ 4*! 5*V(@ ",
"! ! ! ! ! ! ! ! ! ! ! ! ! ! ! ! ! ! ! ! ! ! ! ! ! ! ! ! ! ! ! ! ! ! ,*6* *j ,*7*8*? 9*V(:*a , k ",
"! ! ! ! ! ! ! ! ! ! ! ! ! ! ! ! ! ! ! ! ! ! ! ! ! ! ! ! ! ! ! ! ! ! ! #*@ 3!! u)R(m R#!*4!@ ! ! ",
"! ! ! ! ! ! ! ! ! ! ! ! ! ! ! ! ! ! ! ! ! ! ! ! ! ! ! ! ! ! ! ! ! ! ! ! & < _)! @ 4!& t(s)k ! ! ",
"! ! ! ! ! ! ! ! ! ! ! ! ! ! ! ! ! ! ! ! ! ! ! ! ! ! ! ! ! ! ! ! ! ! ! ! ! {)0*! ~)S)3*! ! ! ! ! ",
"! ! ! ! ! ! ! ! ! ! ! ! ! ! ! ! ! ! ! ! ! ! ! ! ! ! ! ! ! ! ! ! ! ! ! ! ! ! ! ! ! ! ! ! ! ! ! ! "};